<svg id="Layer_1" data-name="Layer 1" xmlns="http://www.w3.org/2000/svg" viewBox="0 0 5669.29 5669.29"><defs><style>.cls-1{fill:none;}.cls-2{fill:#FF961E;}</style></defs><title>searchIcon</title><path class="cls-1" d="M3347.15,1552.24c-247.43-247.43-572.44-371.14-897.45-371.14s-650,123.71-897.46,371.14c-494.85,494.86-494.85,1300.06,0,1794.91,239.72,239.72,558.44,371.74,897.46,371.74s657.73-132,897.45-371.74C3842,2852.3,3842,2047.1,3347.15,1552.24Z"/><path class="cls-2" d="M5023.72,4580.57,3993.62,3550.46A1880,1880,0,0,0,4206.76,3163c92.13-227.2,138.84-467.18,138.84-713.27s-46.71-486.08-138.84-713.28C4111.31,1501,3971.19,1290,3790.31,1109.09s-391.95-321-627.34-416.45c-227.2-92.14-467.18-138.85-713.27-138.85s-486.08,46.71-713.27,138.85C1501,788.09,1290,928.2,1109.09,1109.09s-321,392-416.45,627.33c-92.13,227.2-138.85,467.18-138.85,713.28S600.51,2935.77,692.64,3163c95.45,235.39,235.57,446.45,416.45,627.34s392,321,627.34,416.45c227.19,92.13,467.17,138.84,713.27,138.84s486.07-46.71,713.27-138.84a1880,1880,0,0,0,387.49-213.14l1030.11,1030.1a313.35,313.35,0,0,0,443.15,0C5146.09,4901.35,5146.09,4702.94,5023.72,4580.57Zm-2574-861.68c-339,0-657.74-132-897.46-371.74-494.85-494.85-494.85-1300.05,0-1794.91,247.43-247.43,572.45-371.14,897.46-371.14s650,123.71,897.45,371.14c494.86,494.86,494.86,1300.06,0,1794.91C3107.43,3586.87,2788.71,3718.89,2449.7,3718.89Z"/></svg>
