<?xml version="1.0" encoding="utf-8"?>
<!-- Generator: Adobe Illustrator 22.1.0, SVG Export Plug-In . SVG Version: 6.00 Build 0)  -->
<svg version="1.1" id="Layer_1" xmlns="http://www.w3.org/2000/svg" xmlns:xlink="http://www.w3.org/1999/xlink" x="0px" y="0px"
	 viewBox="0 0 5669.3 5669.3" style="enable-background:new 0 0 5669.3 5669.3;" xml:space="preserve">
<style type="text/css">
	.st0{fill:#8B959D;}
	.st1{fill:#FFFFFF;}
</style>
<path class="st0" d="M5352.3,2834.7c0,764.6-340.8,1449.5-878.8,1911.3c-309-589.7-926.9-992.1-1638.9-992.1
	s-1329.9,402.4-1638.9,992.1C657.8,4284.2,317,3599.2,317,2834.7C317,1444.2,1444.2,317,2834.6,317
	C4225.1,317,5352.3,1444.2,5352.3,2834.7z"/>
<circle class="st1" cx="2826.6" cy="2458.5" r="1158.2"/>
<path class="st1" d="M4473.5,4745.9c-440.4,378-1013,606.4-1638.8,606.4c-625.9,0-1198.4-228.4-1638.9-606.4
	c309-589.7,926.9-992.1,1638.9-992.1S4164.5,4156.2,4473.5,4745.9z"/>
</svg>
