<svg id="Layer_1" data-name="Layer 1" xmlns="http://www.w3.org/2000/svg" viewBox="0 0 5669.29 5669.29"><defs><style>.cls-1{fill:#FB424E;}.cls-2{fill:#232E37;}</style></defs><title>rightArrow</title><path class="cls-1" d="M2834.65,317C1444.19,317,317,1444.19,317,2834.65S1444.19,5352.28,2834.65,5352.28,5352.28,4225.1,5352.28,2834.65,4225.1,317,2834.65,317ZM4163,3094.57,2705.33,4552.25a358.72,358.72,0,0,1-507.3,0C2058,4412.17,2058,4185.05,2198,4045l1204-1204L2185.46,1624.33c-140.08-140.09-140.08-367.21,0-507.29s367.21-140.09,507.3,0L4163,2587.28C4303.09,2727.37,4303.09,2954.49,4163,3094.57Z"/><path class="cls-2" d="M2692.76,1117C2552.67,977,2325.55,977,2185.46,1117s-140.08,367.2,0,507.29l1216.61,1216.6L2198,4045c-140.08,140.09-140.08,367.21,0,507.3a358.72,358.72,0,0,0,507.3,0L4163,3094.57c140.08-140.08,140.08-367.2,0-507.29Z"/></svg>
