<svg id="Layer_1" data-name="Layer 1" xmlns="http://www.w3.org/2000/svg" viewBox="0 0 5669.29 5669.29"><defs><style>.cls-1{fill:#FF961E;}.cls-2{fill:#ffffff;}</style></defs><title>leftArrow</title><path class="cls-1" d="M2834.65,317C1444.19,317,317,1444.19,317,2834.65S1444.19,5352.28,2834.65,5352.28,5352.28,4225.1,5352.28,2834.65,4225.1,317,2834.65,317Zm688.63,4235.25a358.72,358.72,0,0,1-507.29,0L1545.75,3082c-140.09-140.09-140.09-367.21,0-507.29L3003.42,1117c140.09-140.09,367.21-140.09,507.3,0s140.08,367.2,0,507.29l-1204,1204L3523.28,4045C3663.37,4185.05,3663.37,4412.17,3523.28,4552.26Z"/><path class="cls-2" d="M2306.68,2828.36l1204-1204c140.08-140.09,140.08-367.21,0-507.29s-367.21-140.09-507.3,0L1545.75,2574.72c-140.09,140.08-140.09,367.2,0,507.29L3016,4552.26a358.72,358.72,0,0,0,507.29,0c140.09-140.09,140.09-367.21,0-507.3Z"/></svg>
